<svg xmlns="http://www.w3.org/2000/svg" viewBox="0 0 1200 800" width="1200" height="800" role="img" aria-label="">
  <defs>
    <linearGradient id="g" x1="0%" y1="0%" x2="100%" y2="100%">
      <stop offset="0%" style="stop-color:#142e26"/>
      <stop offset="55%" style="stop-color:#285a48"/>
      <stop offset="100%" style="stop-color:#408a71"/>
    </linearGradient>
    <linearGradient id="road" x1="0%" y1="0%" x2="0%" y2="100%">
      <stop offset="0%" style="stop-color:#0d1f18;stop-opacity:0.9"/>
      <stop offset="100%" style="stop-color:#091413"/>
    </linearGradient>
    <filter id="soft" x="-20%" y="-20%" width="140%" height="140%">
      <feGaussianBlur stdDeviation="2" result="b"/>
      <feMerge><feMergeNode in="b"/><feMergeNode in="SourceGraphic"/></feMerge>
    </filter>
  </defs>
  <rect width="1200" height="800" fill="url(#g)"/>
  <ellipse cx="600" cy="720" rx="520" ry="120" fill="#091413" opacity="0.45"/>
  <path d="M0 520 L1200 420 L1200 800 L0 800 Z" fill="url(#road)"/>
  <path d="M600 420 L1180 360 L1200 380 L620 460 Z" fill="#1c3d2e" opacity="0.6"/>
  <g fill="#b0e4cc" opacity="0.35" filter="url(#soft)">
    <circle cx="200" cy="140" r="3"/><circle cx="320" cy="100" r="2"/><circle cx="900" cy="120" r="2.5"/>
    <circle cx="1020" cy="180" r="2"/><circle cx="150" cy="280" r="2"/>
  </g>
  <!-- Motorbike silhouette -->
  <g transform="translate(420 300) scale(1.15)" fill="#091413" opacity="0.88">
    <ellipse cx="180" cy="310" rx="52" ry="52"/>
    <ellipse cx="380" cy="310" rx="52" ry="52"/>
    <path d="M120 310 L200 310 L260 180 L340 160 L420 200 L380 280 L320 280 L280 200 Z"/>
    <path d="M260 180 L340 90 L400 100 L420 200 L340 160 Z" fill="#142e26"/>
    <rect x="330" y="75" width="8" height="55" rx="2" transform="rotate(-15 334 100)" fill="#285a48"/>
  </g>
  <rect width="1200" height="800" fill="url(#g)" opacity="0.12" style="mix-blend-mode:overlay"/>
</svg>
